<?xml version="1.0" encoding="UTF-8" standalone="no"?>
<!DOCTYPE svg PUBLIC "-//W3C//DTD SVG 1.1//EN"
 "http://www.w3.org/Graphics/SVG/1.1/DTD/svg11.dtd">
<!-- Generated by graphviz version 2.40.1 (0)
 -->
<!-- Title: gpucode Pages: 1 -->
<svg width="668pt" height="274pt"
 viewBox="0.00 0.00 667.87 274.00" xmlns="http://www.w3.org/2000/svg" xmlns:xlink="http://www.w3.org/1999/xlink">
<g id="graph0" class="graph" transform="scale(1 1) rotate(0) translate(4 270)">
<title>gpucode</title>
<g id="clust3" class="cluster">
<title>cluster_device</title>
<path fill="#00bfff" stroke="#000000" d="M380.1853,-44C380.1853,-44 467.0768,-44 467.0768,-44 473.0768,-44 479.0768,-50 479.0768,-56 479.0768,-56 479.0768,-215 479.0768,-215 479.0768,-221 473.0768,-227 467.0768,-227 467.0768,-227 380.1853,-227 380.1853,-227 374.1853,-227 368.1853,-221 368.1853,-215 368.1853,-215 368.1853,-56 368.1853,-56 368.1853,-50 374.1853,-44 380.1853,-44"/>
<text text-anchor="middle" x="414.1853" y="-211.8" font-family="Helvetica,sans-Serif" font-size="14.00" fill="#000000">Device API</text>
</g>
<g id="clust4" class="cluster">
<title>cluster_ir</title>
<path fill="#00bfff" stroke="#000000" d="M529.0768,-8C529.0768,-8 639.8708,-8 639.8708,-8 645.8708,-8 651.8708,-14 651.8708,-20 651.8708,-20 651.8708,-233 651.8708,-233 651.8708,-239 645.8708,-245 639.8708,-245 639.8708,-245 529.0768,-245 529.0768,-245 523.0768,-245 517.0768,-239 517.0768,-233 517.0768,-233 517.0768,-20 517.0768,-20 517.0768,-14 523.0768,-8 529.0768,-8"/>
<text text-anchor="middle" x="571.0768" y="-229.8" font-family="Helvetica,sans-Serif" font-size="14.00" fill="#000000">Low&#45;Level IR</text>
</g>
<g id="clust1" class="cluster">
<title>cluster_lang</title>
<path fill="#00bfff" stroke="#000000" d="M20,-57C20,-57 326.1853,-57 326.1853,-57 332.1853,-57 338.1853,-63 338.1853,-69 338.1853,-69 338.1853,-246 338.1853,-246 338.1853,-252 332.1853,-258 326.1853,-258 326.1853,-258 20,-258 20,-258 14,-258 8,-252 8,-246 8,-246 8,-69 8,-69 8,-63 14,-57 20,-57"/>
<text text-anchor="middle" x="90" y="-242.8" font-family="Helvetica,sans-Serif" font-size="14.00" fill="#000000">High&#45;level Language</text>
</g>
<g id="clust2" class="cluster">
<title>cluster_ext</title>
<path fill="#00bfff" stroke="#000000" d="M180.9949,-98C180.9949,-98 318.1853,-98 318.1853,-98 324.1853,-98 330.1853,-104 330.1853,-110 330.1853,-110 330.1853,-215 330.1853,-215 330.1853,-221 324.1853,-227 318.1853,-227 318.1853,-227 180.9949,-227 180.9949,-227 174.9949,-227 168.9949,-221 168.9949,-215 168.9949,-215 168.9949,-110 168.9949,-110 168.9949,-104 174.9949,-98 180.9949,-98"/>
<text text-anchor="middle" x="249.9949" y="-211.8" font-family="Helvetica,sans-Serif" font-size="14.00" fill="#000000">Language Extension</text>
</g>
<!-- Fortran -->
<g id="node1" class="node">
<title>Fortran</title>
<ellipse fill="#d3d3d3" stroke="#000000" cx="65.4975" cy="-209" rx="44.393" ry="18"/>
<text text-anchor="middle" x="65.4975" y="-205.3" font-family="Helvetica,sans-Serif" font-size="14.00" fill="#000000">Fortran</text>
</g>
<!-- OpenACC -->
<g id="node4" class="node">
<title>OpenACC</title>
<ellipse fill="#d3d3d3" stroke="#000000" cx="249.5901" cy="-178" rx="54.6905" ry="18"/>
<text text-anchor="middle" x="249.5901" y="-174.3" font-family="Helvetica,sans-Serif" font-size="14.00" fill="#000000">OpenACC</text>
</g>
<!-- Fortran&#45;&gt;OpenACC -->
<g id="edge1" class="edge">
<title>Fortran&#45;&gt;OpenACC</title>
<path fill="none" stroke="#ffffff" d="M106.3536,-202.1201C122.016,-199.4827 140.5777,-196.357 159.0581,-193.245"/>
<polygon fill="#ffffff" stroke="#ffffff" points="159.717,-196.6834 168.9969,-191.5714 158.5545,-189.7806 159.717,-196.6834"/>
</g>
<!-- C -->
<g id="node2" class="node">
<title>C</title>
<ellipse fill="#d3d3d3" stroke="#000000" cx="65.4975" cy="-155" rx="42.4939" ry="18"/>
<text text-anchor="middle" x="65.4975" y="-151.3" font-family="Helvetica,sans-Serif" font-size="14.00" fill="#000000">C/C++</text>
</g>
<!-- OpenMP -->
<g id="node5" class="node">
<title>OpenMP</title>
<ellipse fill="#d3d3d3" stroke="#000000" cx="249.5901" cy="-124" rx="48.9926" ry="18"/>
<text text-anchor="middle" x="249.5901" y="-120.3" font-family="Helvetica,sans-Serif" font-size="14.00" fill="#000000">OpenMP</text>
</g>
<!-- C&#45;&gt;OpenMP -->
<g id="edge2" class="edge">
<title>C&#45;&gt;OpenMP</title>
<path fill="none" stroke="#ffffff" d="M104.99,-148.3497C120.9367,-145.6644 140.0483,-142.4461 159.0728,-139.2425"/>
<polygon fill="#ffffff" stroke="#ffffff" points="159.7163,-142.6835 168.9962,-137.5715 158.5538,-135.7807 159.7163,-142.6835"/>
</g>
<!-- Other -->
<g id="node3" class="node">
<title>Other</title>
<ellipse fill="#d3d3d3" stroke="#000000" cx="65.4975" cy="-92" rx="49.4949" ry="26.7407"/>
<text text-anchor="middle" x="65.4975" y="-95.8" font-family="Helvetica,sans-Serif" font-size="14.00" fill="#000000">Python,</text>
<text text-anchor="middle" x="65.4975" y="-80.8" font-family="Helvetica,sans-Serif" font-size="14.00" fill="#000000">Julia, ...</text>
</g>
<!-- CUDA -->
<g id="node6" class="node">
<title>CUDA</title>
<ellipse fill="#d3d3d3" stroke="#000000" cx="423.6311" cy="-124" rx="37.8943" ry="18"/>
<text text-anchor="middle" x="423.6311" y="-120.3" font-family="Helvetica,sans-Serif" font-size="14.00" fill="#000000">CUDA</text>
</g>
<!-- Other&#45;&gt;CUDA -->
<g id="edge3" class="edge">
<title>Other&#45;&gt;CUDA</title>
<path fill="none" stroke="#ffffff" stroke-dasharray="5,2" d="M114.6989,-87.531C169.642,-83.6557 260.9955,-80.5516 338.1853,-94 354.2936,-96.8065 371.4158,-102.2839 386.0696,-107.7989"/>
<polygon fill="#ffffff" stroke="#ffffff" points="385.1893,-111.2125 395.7774,-111.5906 387.7361,-104.6922 385.1893,-111.2125"/>
</g>
<!-- OpenACC&#45;&gt;CUDA -->
<g id="edge5" class="edge">
<title>OpenACC&#45;&gt;CUDA</title>
<path fill="none" stroke="#ff0000" d="M290.1936,-165.7212C305.2748,-161.1354 322.5212,-155.8616 338.1853,-151 352.5327,-146.5471 368.2135,-141.6119 382.1805,-137.1919"/>
<polygon fill="#ff0000" stroke="#ff0000" points="383.5288,-140.4362 392.0042,-134.0787 381.4141,-133.7633 383.5288,-140.4362"/>
</g>
<!-- OpenCL -->
<g id="node7" class="node">
<title>OpenCL</title>
<ellipse fill="#d3d3d3" stroke="#000000" cx="423.6311" cy="-178" rx="47.3916" ry="18"/>
<text text-anchor="middle" x="423.6311" y="-174.3" font-family="Helvetica,sans-Serif" font-size="14.00" fill="#000000">OpenCL</text>
</g>
<!-- OpenACC&#45;&gt;OpenCL -->
<g id="edge4" class="edge">
<title>OpenACC&#45;&gt;OpenCL</title>
<path fill="none" stroke="#ffffff" d="M330.1816,-178C342.2248,-178 354.4332,-178 365.8772,-178"/>
<polygon fill="#ffffff" stroke="#ffffff" points="358.1854,-181.5004 368.1853,-178 358.1851,-174.5004 358.1854,-181.5004"/>
</g>
<!-- PTX -->
<g id="node9" class="node">
<title>PTX</title>
<ellipse fill="#d3d3d3" stroke="#000000" cx="584.4738" cy="-115" rx="50.41" ry="26.7407"/>
<text text-anchor="middle" x="584.4738" y="-118.8" font-family="Helvetica,sans-Serif" font-size="14.00" fill="#000000">PTX</text>
<text text-anchor="middle" x="584.4738" y="-103.8" font-family="Helvetica,sans-Serif" font-size="14.00" fill="#000000">(Nvidia)</text>
</g>
<!-- CUDA&#45;&gt;PTX -->
<g id="edge6" class="edge">
<title>CUDA&#45;&gt;PTX</title>
<path fill="none" stroke="#ff0000" d="M461.3415,-121.8899C480.0933,-120.8406 503.2094,-119.5472 524.3295,-118.3654"/>
<polygon fill="#ff0000" stroke="#ff0000" points="524.7206,-121.8491 534.5094,-117.7958 524.3294,-114.86 524.7206,-121.8491"/>
</g>
<!-- SPIR -->
<g id="node10" class="node">
<title>SPIR</title>
<ellipse fill="#d3d3d3" stroke="#000000" cx="584.4738" cy="-187" rx="59.2941" ry="26.7407"/>
<text text-anchor="middle" x="584.4738" y="-190.8" font-family="Helvetica,sans-Serif" font-size="14.00" fill="#000000">SPIR</text>
<text text-anchor="middle" x="584.4738" y="-175.8" font-family="Helvetica,sans-Serif" font-size="14.00" fill="#000000">(Intel? ...)</text>
</g>
<!-- OpenCL&#45;&gt;SPIR -->
<g id="edge7" class="edge">
<title>OpenCL&#45;&gt;SPIR</title>
<path fill="none" stroke="#ffffff" d="M479.0744,-181.1023C490.693,-181.7525 503.0837,-182.4458 515.1359,-183.1202"/>
<polygon fill="#ffffff" stroke="#ffffff" points="506.4941,-184.2042 517.0768,-183.6967 508.4874,-177.4939 506.4941,-184.2042"/>
</g>
<!-- HIP -->
<g id="node8" class="node">
<title>HIP</title>
<ellipse fill="#d3d3d3" stroke="#000000" cx="423.6311" cy="-70" rx="27" ry="18"/>
<text text-anchor="middle" x="423.6311" y="-66.3" font-family="Helvetica,sans-Serif" font-size="14.00" fill="#000000">HIP</text>
</g>
<!-- HSAIL -->
<g id="node11" class="node">
<title>HSAIL</title>
<ellipse fill="#d3d3d3" stroke="#000000" cx="584.4738" cy="-43" rx="42.3529" ry="26.7407"/>
<text text-anchor="middle" x="584.4738" y="-46.8" font-family="Helvetica,sans-Serif" font-size="14.00" fill="#000000">HSAIL</text>
<text text-anchor="middle" x="584.4738" y="-31.8" font-family="Helvetica,sans-Serif" font-size="14.00" fill="#000000">(AMD)</text>
</g>
</g>
</svg>
