<?xml version="1.0" encoding="UTF-8" standalone="no"?>
<!DOCTYPE svg PUBLIC "-//W3C//DTD SVG 1.1//EN"
 "http://www.w3.org/Graphics/SVG/1.1/DTD/svg11.dtd">
<!-- Generated by graphviz version 12.0.0 (0)
 -->
<!-- Title: gpucode Pages: 1 -->
<svg width="599pt" height="268pt"
 viewBox="0.00 0.00 598.93 268.00" xmlns="http://www.w3.org/2000/svg" xmlns:xlink="http://www.w3.org/1999/xlink">
<g id="graph0" class="graph" transform="scale(1 1) rotate(0) translate(4 264)">
<title>gpucode</title>
<g id="clust1" class="cluster">
<title>cluster_lang</title>
<path fill="deepskyblue" stroke="black" d="M20,-32C20,-32 293.39,-32 293.39,-32 299.39,-32 305.39,-38 305.39,-44 305.39,-44 305.39,-224 305.39,-224 305.39,-230 299.39,-236 293.39,-236 293.39,-236 20,-236 20,-236 14,-236 8,-230 8,-224 8,-224 8,-44 8,-44 8,-38 14,-32 20,-32"/>
<text text-anchor="middle" x="77.88" y="-218.7" font-family="Helvetica,sans-Serif" font-size="14.00">High&#45;level Language</text>
</g>
<g id="clust2" class="cluster">
<title>cluster_ext</title>
<path fill="deepskyblue" stroke="black" d="M170.39,-74C170.39,-74 285.39,-74 285.39,-74 291.39,-74 297.39,-80 297.39,-86 297.39,-86 297.39,-192 297.39,-192 297.39,-198 291.39,-204 285.39,-204 285.39,-204 170.39,-204 170.39,-204 164.39,-204 158.39,-198 158.39,-192 158.39,-192 158.39,-86 158.39,-86 158.39,-80 164.39,-74 170.39,-74"/>
<text text-anchor="middle" x="227.89" y="-186.7" font-family="Helvetica,sans-Serif" font-size="14.00">Language Extension</text>
</g>
<g id="clust3" class="cluster">
<title>cluster_device</title>
<path fill="deepskyblue" stroke="black" d="M347.39,-28C347.39,-28 428.54,-28 428.54,-28 434.54,-28 440.54,-34 440.54,-40 440.54,-40 440.54,-200 440.54,-200 440.54,-206 434.54,-212 428.54,-212 428.54,-212 347.39,-212 347.39,-212 341.39,-212 335.39,-206 335.39,-200 335.39,-200 335.39,-40 335.39,-40 335.39,-34 341.39,-28 347.39,-28"/>
<text text-anchor="middle" x="382.01" y="-194.7" font-family="Helvetica,sans-Serif" font-size="14.00">Device Code</text>
</g>
<g id="clust4" class="cluster">
<title>cluster_ir</title>
<path fill="deepskyblue" stroke="black" d="M490.54,-8C490.54,-8 570.93,-8 570.93,-8 576.93,-8 582.93,-14 582.93,-20 582.93,-20 582.93,-240 582.93,-240 582.93,-246 576.93,-252 570.93,-252 570.93,-252 490.54,-252 490.54,-252 484.54,-252 478.54,-246 478.54,-240 478.54,-240 478.54,-20 478.54,-20 478.54,-14 484.54,-8 490.54,-8"/>
<text text-anchor="middle" x="525.92" y="-234.7" font-family="Helvetica,sans-Serif" font-size="14.00">Low&#45;Level IR</text>
</g>
<!-- Fortran -->
<g id="node1" class="node">
<title>Fortran</title>
<ellipse fill="lightgrey" stroke="black" cx="60.19" cy="-132" rx="39.59" ry="18"/>
<text text-anchor="middle" x="60.19" y="-126.58" font-family="Helvetica,sans-Serif" font-size="14.00">Fortran</text>
</g>
<!-- OpenACC -->
<g id="node4" class="node">
<title>OpenACC</title>
<ellipse fill="lightgrey" stroke="black" cx="227.39" cy="-100" rx="52.06" ry="18"/>
<text text-anchor="middle" x="227.39" y="-94.58" font-family="Helvetica,sans-Serif" font-size="14.00">OpenACC</text>
</g>
<!-- Fortran&#45;&gt;OpenACC -->
<g id="edge1" class="edge">
<title>Fortran&#45;&gt;OpenACC</title>
<path fill="none" stroke="white" d="M97.04,-125.06C111.91,-122.18 129.79,-118.71 147.45,-115.29"/>
<polygon fill="white" stroke="white" points="147.75,-118.8 156.9,-113.46 146.42,-111.93 147.75,-118.8"/>
</g>
<!-- C -->
<g id="node2" class="node">
<title>C</title>
<ellipse fill="lightgrey" stroke="black" cx="60.19" cy="-186" rx="37.09" ry="18"/>
<text text-anchor="middle" x="60.19" y="-180.57" font-family="Helvetica,sans-Serif" font-size="14.00">C/C++</text>
</g>
<!-- OpenMP -->
<g id="node5" class="node">
<title>OpenMP</title>
<ellipse fill="lightgrey" stroke="black" cx="227.39" cy="-154" rx="47.07" ry="18"/>
<text text-anchor="middle" x="227.39" y="-148.57" font-family="Helvetica,sans-Serif" font-size="14.00">OpenMP</text>
</g>
<!-- C&#45;&gt;OpenMP -->
<g id="edge2" class="edge">
<title>C&#45;&gt;OpenMP</title>
<path fill="none" stroke="white" d="M95.02,-179.45C110.23,-176.5 128.88,-172.89 147.3,-169.32"/>
<polygon fill="white" stroke="white" points="147.75,-172.8 156.91,-167.46 146.42,-165.93 147.75,-172.8"/>
</g>
<!-- Other -->
<g id="node3" class="node">
<title>Other</title>
<ellipse fill="lightgrey" stroke="black" cx="60.19" cy="-68" rx="44.19" ry="27.93"/>
<text text-anchor="middle" x="60.19" y="-70.45" font-family="Helvetica,sans-Serif" font-size="14.00">Python,</text>
<text text-anchor="middle" x="60.19" y="-54.7" font-family="Helvetica,sans-Serif" font-size="14.00">Julia, ...</text>
</g>
<!-- CUDA -->
<g id="node6" class="node">
<title>CUDA</title>
<ellipse fill="lightgrey" stroke="black" cx="387.97" cy="-54" rx="36.09" ry="18"/>
<text text-anchor="middle" x="387.97" y="-48.58" font-family="Helvetica,sans-Serif" font-size="14.00">CUDA</text>
</g>
<!-- Other&#45;&gt;CUDA -->
<g id="edge3" class="edge">
<title>Other&#45;&gt;CUDA</title>
<path fill="none" stroke="white" stroke-dasharray="5,2" d="M104.79,-66.13C166.16,-63.49 277.54,-58.7 340.45,-56"/>
<polygon fill="white" stroke="white" points="340.26,-59.51 350.1,-55.58 339.96,-52.52 340.26,-59.51"/>
</g>
<!-- OpenACC&#45;&gt;CUDA -->
<g id="edge5" class="edge">
<title>OpenACC&#45;&gt;CUDA</title>
<path fill="none" stroke="red" d="M268.37,-88.64C280.29,-85.24 293.37,-81.48 305.39,-78 318.44,-74.22 332.65,-70.05 345.5,-66.27"/>
<polygon fill="red" stroke="red" points="346.32,-69.67 354.93,-63.49 344.35,-62.96 346.32,-69.67"/>
</g>
<!-- OpenCL -->
<g id="node7" class="node">
<title>OpenCL</title>
<ellipse fill="lightgrey" stroke="black" cx="387.97" cy="-108" rx="44.58" ry="18"/>
<text text-anchor="middle" x="387.97" y="-102.58" font-family="Helvetica,sans-Serif" font-size="14.00">OpenCL</text>
</g>
<!-- OpenACC&#45;&gt;OpenCL -->
<g id="edge4" class="edge">
<title>OpenACC&#45;&gt;OpenCL</title>
<path fill="none" stroke="white" d="M297.38,-103.48C308.95,-104.06 320.82,-104.66 331.97,-105.23"/>
<polygon fill="white" stroke="white" points="323.45,-107.33 333.9,-105.55 324.62,-100.43 323.45,-107.33"/>
</g>
<!-- PTX -->
<g id="node9" class="node">
<title>PTX</title>
<ellipse fill="lightgrey" stroke="black" cx="530.74" cy="-44" rx="44.19" ry="27.93"/>
<text text-anchor="middle" x="530.74" y="-46.45" font-family="Helvetica,sans-Serif" font-size="14.00">PTX</text>
<text text-anchor="middle" x="530.74" y="-30.7" font-family="Helvetica,sans-Serif" font-size="14.00">(Nvidia)</text>
</g>
<!-- CUDA&#45;&gt;PTX -->
<g id="edge6" class="edge">
<title>CUDA&#45;&gt;PTX</title>
<path fill="none" stroke="red" d="M424.12,-51.5C439.62,-50.4 458.19,-49.08 475.41,-47.86"/>
<polygon fill="red" stroke="red" points="475.24,-51.38 484.97,-47.18 474.75,-44.4 475.24,-51.38"/>
</g>
<!-- SPIR -->
<g id="node10" class="node">
<title>SPIR</title>
<ellipse fill="lightgrey" stroke="black" cx="530.74" cy="-118" rx="35.71" ry="27.93"/>
<text text-anchor="middle" x="530.74" y="-120.45" font-family="Helvetica,sans-Serif" font-size="14.00">SPIR</text>
<text text-anchor="middle" x="530.74" y="-104.7" font-family="Helvetica,sans-Serif" font-size="14.00">(Intel)</text>
</g>
<!-- OpenCL&#45;&gt;SPIR -->
<g id="edge7" class="edge">
<title>OpenCL&#45;&gt;SPIR</title>
<path fill="none" stroke="white" d="M440.54,-111.66C449.26,-112.28 458.39,-112.93 467.35,-113.57"/>
<polygon fill="white" stroke="white" points="466.81,-117.04 477.03,-114.26 467.31,-110.06 466.81,-117.04"/>
</g>
<!-- HIP -->
<g id="node8" class="node">
<title>HIP</title>
<ellipse fill="lightgrey" stroke="black" cx="387.97" cy="-162" rx="27" ry="18"/>
<text text-anchor="middle" x="387.97" y="-156.57" font-family="Helvetica,sans-Serif" font-size="14.00">HIP</text>
</g>
<!-- HSAIL -->
<g id="node11" class="node">
<title>HSAIL</title>
<ellipse fill="lightgrey" stroke="black" cx="530.74" cy="-192" rx="39.42" ry="27.93"/>
<text text-anchor="middle" x="530.74" y="-194.45" font-family="Helvetica,sans-Serif" font-size="14.00">HSAIL</text>
<text text-anchor="middle" x="530.74" y="-178.7" font-family="Helvetica,sans-Serif" font-size="14.00">(AMD)</text>
</g>
</g>
</svg>
